<mxfile host="65bd71144e">
    <diagram id="XX8ALJ1K36812sOOz0n9" name="Page-1">
        <mxGraphModel dx="1099" dy="612" grid="1" gridSize="10" guides="1" tooltips="1" connect="1" arrows="1" fold="1" page="1" pageScale="1" pageWidth="850" pageHeight="1100" math="0" shadow="0">
            <root>
                <mxCell id="0"/>
                <mxCell id="1" parent="0"/>
                <mxCell id="13" value="" style="whiteSpace=wrap;html=1;aspect=fixed;" parent="1" vertex="1">
                    <mxGeometry x="155" y="60" width="510" height="510" as="geometry"/>
                </mxCell>
                <mxCell id="7" style="edgeStyle=none;html=1;exitX=0.5;exitY=0;exitDx=0;exitDy=0;" parent="1" source="2" edge="1">
                    <mxGeometry relative="1" as="geometry">
                        <mxPoint x="462.5" y="237.5" as="targetPoint"/>
                    </mxGeometry>
                </mxCell>
                <mxCell id="2" value="VPC" style="whiteSpace=wrap;aspect=fixed;align=right;html=1;labelPosition=left;verticalLabelPosition=top;verticalAlign=bottom;rounded=1;" parent="1" vertex="1">
                    <mxGeometry x="230" y="170" width="360" height="360" as="geometry"/>
                </mxCell>
                <mxCell id="3" value="private subnet" style="whiteSpace=wrap;html=1;aspect=fixed;labelBorderColor=none;labelPosition=center;verticalLabelPosition=middle;align=center;verticalAlign=middle;horizontal=1;labelBackgroundColor=default;rounded=1;" parent="1" vertex="1">
                    <mxGeometry x="250" y="340" width="150" height="150" as="geometry"/>
                </mxCell>
                <mxCell id="8" style="edgeStyle=none;html=1;exitX=0.5;exitY=0;exitDx=0;exitDy=0;entryX=0.55;entryY=0.95;entryDx=0;entryDy=0;entryPerimeter=0;" parent="1" source="4" target="6" edge="1">
                    <mxGeometry relative="1" as="geometry"/>
                </mxCell>
                <mxCell id="4" value="public subnet" style="whiteSpace=wrap;html=1;aspect=fixed;rounded=1;" parent="1" vertex="1">
                    <mxGeometry x="420" y="340" width="150" height="150" as="geometry"/>
                </mxCell>
                <mxCell id="6" value="" style="ellipse;shape=cloud;whiteSpace=wrap;html=1;rounded=1;" parent="1" vertex="1">
                    <mxGeometry x="350" y="110" width="120" height="80" as="geometry"/>
                </mxCell>
            </root>
        </mxGraphModel>
    </diagram>
</mxfile>